<?xml version="1.0" encoding="utf-8"?>
<!-- Designed by Vexels.com - 2016 All Rights Reserved - https://vexels.com/terms-and-conditions/  -->

<svg version="1.1" id="Layer_1" xmlns="http://www.w3.org/2000/svg" xmlns:xlink="http://www.w3.org/1999/xlink" x="0px" y="0px"
	 width="1200px" height="1200px" viewBox="0 0 1200 1200" enable-background="new 0 0 1200 1200" xml:space="preserve">
<g>
	<g>
		<path d="M373.993,639.613c-1.466,0.735-2.892,1.635-4.271,2.751C371.107,641.447,372.55,640.53,373.993,639.613z"/>
		<path d="M1137.831,605.471c-5.907-4.136-12.169-7.717-18.7-10.791c-13.732-6.479-29.223-10.727-44.496-10.173
			c-15.649,0.556-29.313,9.583-42.234,17.881c-9.117,5.853-17.024,10.955-27.757,12.684c-5.074,0.814-9.831,1.321-14.92,1.31
			c6.569-1.916,11.868-14.713,11.297-21.047c0.128,1.648-20.015,6.404-22.112,7.007c-10.695,3.072-21.722,1.928-32.65,1.116
			c-7.854-0.573-17.52-1.093-24.51-4.728c8.185-0.881,15.769-7.24,18.317-15.01c-0.586,1.781-12.386,2.466-14.1,2.336
			c-5.141-0.385-8.343-2.775-12.635-5.152c-9.801-5.451-20.759-12.323-32.068-13.79c-16.862-2.185-35.408-2.08-51.412,4.329
			c7.638-3.05,10.528-15.087,9.964-22.056c-17.204,18.907-50.392,7.993-70.575,24.476c-19.971,16.314-44.319,25.978-70.688,22.103
			c-5.778-0.842-8.799-3.061-13.522-6.077c6.686,0.905,15.292,1.725,22.21,0.994c-5.838-1.894-9.046-6.445-13.929-10.143
			c14.099,2.313,34.818-2.174,47.673,5.761c-3.343-4.213-8.461-7.736-13.685-8.537c6.06-2.916,13.625-1.811,19.912-4.021
			c6.603-2.324,12.938-5.579,17.804-10.727c9.747-10.301,13.614-31.329,7.018-44.377c1.917,3.781-12.499,19.346-15.588,21.455
			c-8.029,5.481-18.302,7.508-27.867,8.029c6.41-4.125,4.529-12.744,2.005-18.732c-6.639,20.76-37.383,7.964-51.027,16.494
			c3.341-4.307,3.091-12.229-1.351-16.045c-4.837,10.453-17.126,8.988-27.216,10.6c-15.729,2.507-24.166,11.411-34.508,22.272
			c-2.291,2.409-4.031,4.775-5.423,7.159c-1.53-10.899-4.405-25.343-10.88-35.824v-0.637c-0.064,0.105-0.116,0.216-0.186,0.316
			c-0.059-0.1-0.111-0.211-0.175-0.316v0.637c-6.475,10.481-9.356,24.925-10.88,35.824c-1.39-2.385-3.138-4.75-5.428-7.159
			c-10.342-10.861-18.768-19.766-34.503-22.272c-10.091-1.612-22.38-0.147-27.224-10.6c-4.44,3.816-4.684,11.738-1.343,16.045
			c-13.644-8.531-44.388,4.265-51.033-16.494c-2.524,5.989-4.399,14.608,2.011,18.732c-9.565-0.521-19.843-2.548-27.872-8.029
			c-3.091-2.108-17.5-17.674-15.583-21.455c-6.596,13.048-2.728,34.076,7.012,44.377c4.872,5.149,11.207,8.403,17.81,10.727
			c6.287,2.21,13.852,1.105,19.912,4.021c-5.224,0.8-10.342,4.324-13.685,8.537c12.855-7.935,33.575-3.448,47.679-5.761
			c-4.895,3.698-8.097,8.249-13.935,10.143c6.913,0.731,15.519-0.089,22.21-0.994c-4.722,3.016-7.738,5.235-13.522,6.077
			c-26.369,3.874-50.717-5.789-70.695-22.103c-20.175-16.483-53.363-5.57-70.565-24.476c-0.571,6.969,2.326,19.006,9.957,22.056
			c-15.998-6.409-34.544-6.515-51.401-4.329c-11.312,1.468-22.266,8.339-32.071,13.79c-4.301,2.377-7.492,4.767-12.633,5.152
			c-1.717,0.13-13.521-0.555-14.106-2.336c2.554,7.77,10.132,14.129,18.319,15.01c-6.988,3.634-16.652,4.155-24.507,4.728
			c-10.938,0.812-21.951,1.956-32.65-1.116c-2.097-0.603-22.25-5.359-22.116-7.007c-0.571,6.334,4.722,19.131,11.3,21.047
			c-5.094,0.012-9.85-0.496-14.929-1.31c-10.733-1.729-18.633-6.83-27.748-12.684c-12.924-8.298-26.59-17.325-42.233-17.881
			c-15.273-0.554-30.769,3.694-44.505,10.173c-6.528,3.074-12.79,6.656-18.693,10.791c-3.493,2.456-9.98,5.154-12.171,8.923
			c4.348-0.731,9.331-3.127,13.796-4.517c4.662-1.443,9.57-2.144,14.303-3.185c7.759-1.717,15.746-2.804,23.757-2.804
			c8.946,0,17.524,0.31,26.055,3.177c9.127,3.074,17.516,7.894,25.551,13.136c11.592,7.578,23.723,14.683,37.021,18.743
			c11.489,3.512,22.344,2.028,33.458-0.473c-4.628,1.046-11.746,17.15-12.167,21.304c15.338-17.734,47.177-7.52,67.435-17.062
			c6.193-2.922,12.58-6.13,18.399-9.606c-7.503,4.47-14.94,11.902-17.879,20.192c0.806-2.285,13.392-6.379,15.716-7.035
			c5.276-1.46,11.372-2.08,16.817-2.757c13.024-1.601,27.415-9.356,36.67-18.499c9.126-9.034,18.563-21.474,32.569-21.491
			c-4.662,5.113-10.259,11.498-13.602,17.53c17.669-6.323,40.771-8.918,59.5-8.636c16.558,0.25,32.83,3.961,49.408,4.457
			c14.438,0.438,28.836-2.26,42.274-7.403c15.308-5.842,43.214-35.922,58.686-13.83c-4.13-5.902-20.607,1.654-25.382,3.711
			c-13.708,5.913-26.714,14.004-41.519,17.014c5.948,3.845,11.944,6.759,18.826,7.742c-12.61,1.437-26.75,2.634-39.627,1.718
			c-10.25-0.737-22.554-0.333-32.126-4.143c3.443,5.019,8.018,10.085,12.622,14.082c-11.885-2.582-22.565-8.694-35.057-9.827
			c-13.978-1.255-30.899-1.344-43.986,4.177c-5.949,2.507-11.915,5.96-17.524,9.503c23.155-11.611,55.982,21.261,78.162,24.155
			c-6.545,2.833-12.387,6.274-17.903,11.498c7.655-7.251,26.697-3.213,35.829-1.144c12.655,2.875,24.878,4.194,37.968,2.74
			c6.819-0.765,12.93-3.67,18.009-8.232c4.568-4.113,7.21-10.062,13.228-12.422c-1.332,0.526-5.913,9.985-6.312,11.697
			c-0.981,4.295,0.767,9.968,3.564,13.258c-5.293-6.235,12.702-15.059,16.513-17.541c11.195-7.298,9.863-19.089,17.062-29.367
			c3.926-5.592,13.11-19.433,20.046-20.502c-7.216,5.662-3.767,21.635-5.906,29.798c-2.659,10.098-7.415,21.042-19.645,20.113
			c7.503,3.721,17.075-0.119,22.484-5.645c7-7.129,6.21-14.893,5.487-24.086c-0.609-7.7,2.028-16.84,7.415-22.934
			c5.398,6.094,8.027,15.233,7.42,22.934c-0.718,9.192-1.507,16.956,5.493,24.086c5.411,5.526,14.981,9.365,22.484,5.645
			c-12.236,0.928-16.986-10.016-19.645-20.113c-2.138-8.163,1.31-24.136-5.906-29.798c6.935,1.069,16.12,14.91,20.046,20.502
			c7.199,10.278,5.866,22.069,17.062,29.367c3.811,2.482,21.806,11.306,16.513,17.541c2.798-3.29,4.545-8.963,3.564-13.258
			c-0.393-1.712-4.979-11.171-6.312-11.697c6.019,2.36,8.655,8.309,13.228,12.422c5.079,4.562,11.19,7.467,18.009,8.232
			c13.09,1.454,25.312,0.135,37.968-2.74c9.127-2.069,28.174-6.107,35.83,1.144c-5.517-5.224-11.359-8.664-17.904-11.498
			c22.18-2.893,55.007-35.765,78.157-24.155c-5.609-3.542-11.569-6.996-17.518-9.503c-13.087-5.521-30.008-5.432-43.986-4.177
			c-12.492,1.133-23.172,7.245-35.057,9.827c4.604-3.997,9.174-9.063,12.622-14.082c-9.572,3.811-21.883,3.407-32.126,4.143
			c-12.877,0.917-27.017-0.28-39.627-1.718c6.883-0.983,12.879-3.897,18.82-7.742c-14.799-3.01-27.806-11.101-41.514-17.014
			c-4.775-2.058-21.258-9.613-25.382-3.711c15.472-22.092,43.378,7.988,58.68,13.83c13.445,5.143,27.842,7.841,42.28,7.403
			c16.571-0.496,32.844-4.207,49.402-4.457c18.727-0.282,41.826,2.313,59.505,8.636c-3.343-6.032-8.94-12.416-13.602-17.53
			c14.006,0.017,23.445,12.456,32.569,21.491c9.256,9.143,23.646,16.898,36.671,18.499c5.45,0.677,11.537,1.297,16.814,2.757
			c2.33,0.656,14.912,4.75,15.724,7.035c-2.946-8.29-10.38-15.722-17.881-20.192c5.81,3.476,12.199,6.684,18.4,9.606
			c20.256,9.542,52.102-0.673,67.435,17.062c-0.421-4.155-7.539-20.258-12.176-21.304c11.124,2.501,21.977,3.985,33.462,0.473
			c13.303-4.061,25.435-11.165,37.025-18.743c8.027-5.242,16.423-10.062,25.555-13.136c8.523-2.867,17.107-3.177,26.051-3.177
			c8.005,0,15.995,1.086,23.751,2.804c4.735,1.041,9.643,1.742,14.311,3.185c4.464,1.39,9.44,3.786,13.792,4.517
			C1147.813,610.625,1141.326,607.927,1137.831,605.471z M499.71,607.307c-17.605,2.385-35.893-0.496-52.731-5.772
			c-24.745-7.755-47.609-13.3-73.814-10.226c-23.95,2.803-47.416,9.179-70.426,16.255c-37.079,11.398-80.575,35.005-119.944,20.953
			c-8.863-3.174-17.715-7.077-26.047-11.453c-4.324-2.274-7.877-5.019-11.979-7.667c-12.345-7.958-27.894-9.115-42.175-8.631
			c-12.201,0.415-23.325,3.612-35.221,5.656c8.916-3.57,18.657-6.87,28.08-8.722c6.124-1.204,12.762-2.689,18.978-2.595
			c14.971,0.222,28.864,4.429,42.433,10.564c18.99,8.589,40.134,22.28,61.807,20.76c22.846-1.607,44.99-12.007,66.657-18.89
			c36.669-11.644,75.421-24.026,114.323-23.715c19.457,0.156,36.677,4.521,55.129,10.306c14.157,4.434,29.565,9.162,44.576,7.379
			c9.595-1.139,22.349-5.872,31.797-12.165c2.839-1.892,5.387-3.933,7.456-6.053C526.881,595.333,517.287,604.922,499.71,607.307z
			 M611.212,599.875c4.371,1.332,8.24,2.978,10.004,3.878c10.821,5.517,19.982,13.685,28.795,21.917
			c4.825,4.517,9.57,9.115,14.583,13.411c15.635,13.386,35.894,16.641,55.841,14.256c27.919-3.324,53.107-17.325,81.545-19.568
			c-27.923,2.202-52.961,22.122-80.218,27.736c-12.608,2.595-25.931,0.135-38.248-2.839c-14.023-3.384-25.188-12.306-35.805-21.637
			c-7.048-6.193-13.137-13.381-20.205-19.55c-3.647-3.174-7.608-6.298-11.954-8.444c-5.19-2.559-9.921-1.892-15.555-1.543
			c-5.622-0.349-10.353-1.017-15.544,1.543c-4.346,2.146-8.307,5.271-11.954,8.444c-7.069,6.169-13.165,13.356-20.205,19.55
			c-10.617,9.331-21.782,18.253-35.805,21.637c-12.317,2.975-25.645,5.434-38.248,2.839c-27.263-5.615-52.295-25.534-80.224-27.736
			c28.443,2.244,53.632,16.244,81.551,19.568c19.942,2.384,40.206-0.87,55.841-14.256c5.013-4.295,9.758-8.894,14.583-13.411
			c8.813-8.232,17.973-16.4,28.795-21.917c1.764-0.9,5.633-2.546,10.004-3.878c-15.754-14.189-27.382-34.679-50.975-34.779
			c-16.804-0.07-33.376,3.565-50.052,5.177c-29.482,2.863-62.682-1.981-59.902-39.14c-1.133,15.231,15.671,28.321,28.853,32.071
			c18.15,5.188,39.995,1.413,58.289-1.028c14.07-1.869,29.73-4.775,43.859-1.753c18.183,3.88,28.432,19.258,40.965,31.575v0.338
			c0.064-0.053,0.117-0.111,0.169-0.164c0.064,0.053,0.122,0.111,0.18,0.164v-0.338c12.527-12.317,22.781-27.695,40.965-31.575
			c14.129-3.021,29.788-0.116,43.859,1.753c18.294,2.441,40.14,6.216,58.289,1.028c13.181-3.751,29.986-16.84,28.853-32.071
			c2.781,37.16-30.426,42.004-59.909,39.14c-16.669-1.612-33.24-5.246-50.044-5.177
			C638.594,565.196,626.966,585.687,611.212,599.875z M1097.41,600.768c-14.288-0.485-29.831,0.673-42.173,8.631
			c-4.111,2.648-7.659,5.393-11.988,7.667c-8.32,4.376-17.174,8.279-26.036,11.453c-39.377,14.051-82.866-9.555-119.95-20.953
			c-23.011-7.076-46.476-13.452-70.432-16.255c-26.205-3.074-49.069,2.471-73.809,10.226c-16.838,5.276-35.127,8.157-52.731,5.772
			c-17.577-2.384-27.171-11.973-38.904-24.014c2.069,2.12,4.617,4.16,7.462,6.053c9.448,6.293,22.203,11.026,31.791,12.165
			c15.017,1.783,30.426-2.945,44.576-7.379c18.458-5.785,35.677-10.151,55.129-10.306c38.907-0.31,77.661,12.071,114.332,23.715
			c21.662,6.883,43.812,17.283,66.654,18.89c21.677,1.52,42.819-12.171,61.813-20.76c13.567-6.135,27.456-10.342,42.421-10.564
			c6.216-0.094,12.86,1.391,18.986,2.595c9.418,1.853,19.159,5.152,28.073,8.722C1120.732,604.379,1109.608,601.183,1097.41,600.768
			z"/>
		<path d="M826.001,639.613c1.449,0.917,2.886,1.834,4.277,2.751C828.899,641.248,827.473,640.348,826.001,639.613z"/>
	</g>
</g>
</svg>
